<svg xmlns="http://www.w3.org/2000/svg" fill="none" viewBox="0 0 24 24" id="Aws--Streamline-Svg-Logos" height="24" width="24">
  <desc>
    Aws Streamline Icon: https://streamlinehq.com
  </desc>
  <path fill="#252f3e" d="M6.872425 10.077275c0 0.289175 0.03125 0.52365 0.085975 0.6956 0.062525 0.17195 0.140675 0.359525 0.2501 0.56275 0.039075 0.062525 0.0547 0.12505 0.0547 0.17975 0 0.078175 -0.046875 0.156325 -0.1485 0.234475l-0.4924 0.328275c-0.070325 0.0469 -0.140675 0.07035 -0.2032 0.07035 -0.07815 0 -0.156325 -0.0391 -0.234475 -0.109425 -0.109425 -0.11725 -0.203225 -0.2423 -0.281375 -0.36735 -0.07815 -0.132875 -0.156325 -0.281375 -0.2423 -0.46115 -0.609625 0.719075 -1.375575 1.0786 -2.29785 1.0786 -0.656525 0 -1.1801925 -0.187575 -1.56317 -0.56275 -0.382975 -0.37515 -0.5783725 -0.875375 -0.5783725 -1.500625 0 -0.66435 0.234475 -1.20365 0.7112425 -1.610075 0.4767675 -0.406425 1.10985 -0.60965 1.914875 -0.60965 0.26575 0 0.5393 0.02345 0.8285 0.06255 0.289175 0.039075 0.586175 0.1016 0.898825 0.17195v-0.570575c0 -0.594 -0.125075 -1.00825 -0.36735 -1.250525 -0.250125 -0.2423 -0.672175 -0.359525 -1.274 -0.359525 -0.27355 0 -0.554925 0.03125 -0.8441 0.1016 -0.2892 0.07035 -0.57055 0.156325 -0.844115 0.265725 -0.125055 0.054725 -0.218845 0.085975 -0.273555 0.101625 -0.0547125 0.015625 -0.09379 0.02345 -0.125055 0.02345 -0.10942 0 -0.1641325 -0.078175 -0.1641325 -0.2423v-0.382975c0 -0.12505 0.0156325 -0.21885 0.0547125 -0.27355 0.0390775 -0.054725 0.10942 -0.109425 0.2188425 -0.16415 0.273555 -0.140675 0.6018275 -0.257925 0.9848025 -0.3517 0.382975 -0.1016 0.7894 -0.1485 1.219275 -0.1485 0.930075 0 1.61005 0.211025 2.04775 0.633075 0.429875 0.42205 0.648725 1.06295 0.648725 1.9227v2.53235h0.015625Zm-3.17325 1.188c0.257925 0 0.523675 -0.0469 0.80505 -0.1407 0.28135 -0.093775 0.531475 -0.265725 0.7425 -0.5002 0.12505 -0.1485 0.21885 -0.312625 0.265725 -0.500225 0.0469 -0.187575 0.078175 -0.414225 0.078175 -0.679975v-0.32825c-0.226675 -0.054725 -0.46895 -0.101625 -0.719075 -0.132875 -0.2501 -0.031275 -0.4924 -0.0469 -0.734675 -0.0469 -0.523675 0 -0.90665 0.1016 -1.164575 0.312625 -0.257925 0.211025 -0.382975 0.50805 -0.382975 0.898825 0 0.36735 0.0938 0.6409 0.2892 0.828475 0.187575 0.1954 0.461125 0.2892 0.82065 0.2892Zm6.27615 0.8441c-0.1407 0 -0.2345 -0.02345 -0.297025 -0.07815 -0.062525 -0.0469 -0.117225 -0.156325 -0.164125 -0.304825L7.67745 5.68475c-0.0469 -0.156325 -0.07035 -0.257925 -0.07035 -0.312625 0 -0.12505 0.062525 -0.1954 0.1876 -0.1954h0.76595c0.1485 0 0.2501 0.02345 0.3048 0.07815 0.06255 0.0469 0.109425 0.156325 0.156325 0.304825l1.313075 5.1741 1.219275 -5.1741c0.039075 -0.156325 0.085975 -0.257925 0.1485 -0.304825s0.17195 -0.07815 0.312625 -0.07815h0.625275c0.1485 0 0.2501 0.02345 0.312625 0.07815 0.062525 0.0469 0.11725 0.156325 0.1485 0.304825l1.2349 5.236625 1.35215 -5.236625c0.0469 -0.156325 0.1016 -0.257925 0.156325 -0.304825 0.062525 -0.0469 0.164125 -0.07815 0.3048 -0.07815h0.726875c0.125075 0 0.1954 0.062525 0.1954 0.1954 0 0.039075 -0.0078 0.07815 -0.015625 0.12505s-0.02345 0.109425 -0.0547 0.1954l-1.883625 6.04165c-0.0469 0.156325 -0.1016 0.257925 -0.16415 0.304825 -0.062525 0.046875 -0.164125 0.07815 -0.297 0.07815h-0.67215c-0.1485 0 -0.2501 -0.02345 -0.31265 -0.07815 -0.062525 -0.054725 -0.117225 -0.156325 -0.1485 -0.31265L12.31225 6.685175l-1.20365 5.033425c-0.039075 0.1563 -0.085975 0.257925 -0.1485 0.312625 -0.062525 0.0547 -0.17195 0.07815 -0.312625 0.07815h-0.67215Zm10.04335 0.21105c-0.406425 0 -0.81285 -0.0469 -1.203625 -0.1407 -0.3908 -0.0938 -0.695625 -0.1954 -0.898825 -0.312625 -0.12505 -0.07035 -0.211025 -0.1485 -0.2423 -0.21885 -0.03125 -0.07035 -0.0469 -0.1485 -0.0469 -0.21885v-0.3986c0 -0.164125 0.062525 -0.2423 0.179775 -0.2423 0.0469 0 0.0938 0.007825 0.140675 0.02345 0.0469 0.015625 0.11725 0.0469 0.1954 0.07815 0.26575 0.11725 0.554925 0.21105 0.85975 0.273575 0.312625 0.062525 0.61745 0.093775 0.930075 0.093775 0.4924 0 0.875375 -0.085975 1.141125 -0.257925 0.26575 -0.17195 0.406425 -0.42205 0.406425 -0.7425 0 -0.21885 -0.07035 -0.3986 -0.211025 -0.5471 -0.1407 -0.1485 -0.406425 -0.281375 -0.7894 -0.406425l-1.1333 -0.351725c-0.57055 -0.17975 -0.992625 -0.4455 -1.25055 -0.7972 -0.257925 -0.3439 -0.390775 -0.726875 -0.390775 -1.1333 0 -0.328275 0.070325 -0.617475 0.211025 -0.867575 0.140675 -0.2501 0.32825 -0.46895 0.562725 -0.6409 0.234475 -0.17975 0.500225 -0.312625 0.81285 -0.406425 0.31265 -0.093775 0.6409 -0.132875 0.9848 -0.132875 0.17195 0 0.351725 0.007825 0.523675 0.031275 0.17975 0.02345 0.3439 0.0547 0.508025 0.085975 0.156325 0.039075 0.304825 0.07815 0.4455 0.12505 0.1407 0.0469 0.2501 0.0938 0.328275 0.1407 0.109425 0.062525 0.187575 0.12505 0.234475 0.195375 0.0469 0.062525 0.07035 0.1485 0.07035 0.257925v0.36735c0 0.164125 -0.06255 0.2501 -0.179775 0.2501 -0.062525 0 -0.164125 -0.03125 -0.297 -0.093775 -0.4455 -0.203225 -0.945725 -0.304825 -1.50065 -0.304825 -0.4455 0 -0.797225 0.07035 -1.0395 0.21885 -0.2423 0.1485 -0.36735 0.37515 -0.36735 0.6956 0 0.21885 0.07815 0.406425 0.234475 0.554925 0.156325 0.1485 0.4455 0.297 0.85975 0.429875l1.10985 0.351725c0.562725 0.17975 0.96915 0.429875 1.21145 0.750325 0.2423 0.32045 0.359525 0.687775 0.359525 1.0942 0 0.3361 -0.070325 0.6409 -0.2032 0.90665 -0.1407 0.265725 -0.328275 0.5002 -0.570575 0.6878 -0.242275 0.1954 -0.531475 0.336075 -0.86755 0.437675 -0.3517 0.109425 -0.71905 0.16415 -1.117675 0.16415Z" stroke-width="0.25"></path>
  <path fill="#FF9900" d="M21.496 16.118825c-2.571425 1.89925 -6.3074 2.9075 -9.519725 2.9075 -4.501925 0 -8.55835 -1.6648 -11.6221675 -4.4316 -0.2422905 -0.21885 -0.0234475 -0.51585 0.26574 -0.3439C3.933775 16.173525 8.02145 17.3381 12.24985 17.3381c2.852775 0 5.986925 -0.594025 8.870975 -1.8133 0.429875 -0.195375 0.797225 0.281375 0.375175 0.594025Zm1.070775 -1.219275c-0.328275 -0.422075 -2.172825 -0.203225 -3.009125 -0.101625 -0.2501 0.031275 -0.289175 -0.187575 -0.062525 -0.3517 1.4694 -1.0317 3.8845 -0.7347 4.16585 -0.3908 0.281375 0.351725 -0.07815 2.766825 -1.45375 3.923575 -0.211025 0.17975 -0.414225 0.085975 -0.32045 -0.148525 0.31265 -0.77375 1.00825 -2.5167 0.68 -2.930925Z" stroke-width="0.25"></path>
</svg>